<?xml version="1.0" encoding="UTF-8"?>
<!DOCTYPE svg PUBLIC "-//W3C//DTD SVG 1.1//EN" "http://www.w3.org/Graphics/SVG/1.1/DTD/svg11.dtd">
<!-- Creator: CorelDRAW 2020 (64-Bit) -->
<svg xmlns="http://www.w3.org/2000/svg" xml:space="preserve" width="10mm" height="10mm" version="1.1" style="shape-rendering:geometricPrecision; text-rendering:geometricPrecision; image-rendering:optimizeQuality; fill-rule:evenodd; clip-rule:evenodd"
viewBox="0 0 1000 1000"
 xmlns:xlink="http://www.w3.org/1999/xlink"
 xmlns:xodm="http://www.corel.com/coreldraw/odm/2003">
 <defs>
  <style type="text/css">
   <![CDATA[
    .fil0 {fill:#FEFEFE}
   ]]>
  </style>
 </defs>
 <g id="Слой_x0020_1">
  <metadata id="CorelCorpID_0Corel-Layer"/>
  <path class="fil0" d="M790.81 762.73c0,0 52.92,0 52.92,-52.92 0,-52.92 -52.92,-211.67 -317.49,-211.67 -264.58,0 -317.5,158.75 -317.5,211.67 0,52.92 52.92,52.92 52.92,52.92l529.15 0zm-528.89 -49.95l0 -0.11 0 0.11zm0.9 -2.97l526.83 0c0.25,-0.04 0.5,-0.07 0.74,-0.11l0.42 -0.11c-0.05,-13.02 -8.15,-52.18 -44.03,-88.05 -34.49,-34.49 -99.42,-70.48 -220.54,-70.48 -121.18,0 -186.06,35.98 -220.56,70.49 -35.88,35.88 -43.92,75.04 -44.03,88.05 0.4,0.06 0.8,0.15 1.19,0.21l-0.02 0zm526.62 2.76l0 -0.11 0 0.11zm-263.2 -320.26c58.44,0 105.83,-47.39 105.83,-105.82 0,-58.44 -47.39,-105.83 -105.83,-105.83 -58.43,0 -105.82,47.39 -105.82,105.83 0,58.43 47.39,105.82 105.82,105.82z"/>
 </g>
</svg>
