<?xml version="1.0" encoding="UTF-8"?>
<!DOCTYPE svg PUBLIC "-//W3C//DTD SVG 1.1//EN" "http://www.w3.org/Graphics/SVG/1.1/DTD/svg11.dtd">
<!-- Creator: CorelDRAW 2020 (64-Bit) -->
<svg xmlns="http://www.w3.org/2000/svg" xml:space="preserve" width="10mm" height="10mm" version="1.1" style="shape-rendering:geometricPrecision; text-rendering:geometricPrecision; image-rendering:optimizeQuality; fill-rule:evenodd; clip-rule:evenodd"
viewBox="0 0 1000 1000"
 xmlns:xlink="http://www.w3.org/1999/xlink"
 xmlns:xodm="http://www.corel.com/coreldraw/odm/2003">
 <defs>
  <style type="text/css">
   <![CDATA[
    .str0 {stroke:#2B2A29;stroke-width:20;stroke-miterlimit:22.9256}
    .fil0 {fill:#EAFF96}
   ]]>
  </style>
   <clipPath id="id0">
    <rect x="45796.67" y="-29556.67" width="67733.34" height="38100"/>
   </clipPath>
 </defs>
 <g id="Слой_x0020_1">
  <metadata id="CorelCorpID_0Corel-Layer"/>
  <g id="_2184460781728">
   <path class="fil0" d="M486.55 307.98c2.5,-2.47 5.88,-3.87 9.37,-3.87 3.5,0 6.88,1.4 9.36,3.89l158.75 158.74c2.48,2.44 3.88,5.82 3.88,9.33 0,7.32 -5.93,13.25 -13.25,13.25 -3.51,0 -6.89,-1.4 -9.37,-3.88l-149.37 -149.38 -149.37 149.39c-2.46,2.47 -5.84,3.87 -9.35,3.87 -7.32,0 -13.25,-5.93 -13.25,-13.25 0,-3.51 1.4,-6.89 3.88,-9.37l158.74 -158.74 -0.02 0.02z"/>
   <path class="fil0" d="M486.55 413.82c2.5,-2.48 5.88,-3.88 9.37,-3.88 3.5,0 6.88,1.4 9.36,3.89l158.75 158.74c2.48,2.44 3.88,5.82 3.88,9.33 0,7.32 -5.93,13.25 -13.25,13.25 -3.51,0 -6.89,-1.4 -9.37,-3.88l-149.37 -149.38 -149.37 149.4c-2.46,2.46 -5.84,3.86 -9.35,3.86 -7.32,0 -13.25,-5.93 -13.25,-13.25 0,-3.51 1.4,-6.89 3.88,-9.37l158.74 -158.74 -0.02 0.03z"/>
  </g>
  <g style="clip-path:url(#id0)">
   <image x="45796.67" y="-29556.67" width="67733.34" height="38100" xlink:href="arrow_top_Images\arrow_top_ImgID1.png"/>
  </g>
  <rect class="fil0 str0" x="49252.54" y="-11960.41" width="28257.5" height="17991.66"/>
 </g>
</svg>
