<?xml version="1.0" encoding="UTF-8"?>
<!DOCTYPE svg PUBLIC "-//W3C//DTD SVG 1.1//EN" "http://www.w3.org/Graphics/SVG/1.1/DTD/svg11.dtd">
<!-- Creator: CorelDRAW 2020 (64-Bit) -->
<svg xmlns="http://www.w3.org/2000/svg" xml:space="preserve" width="4.5mm" height="3.9mm" version="1.1" style="shape-rendering:geometricPrecision; text-rendering:geometricPrecision; image-rendering:optimizeQuality; fill-rule:evenodd; clip-rule:evenodd"
viewBox="0 0 450 390"
 xmlns:xlink="http://www.w3.org/1999/xlink"
 xmlns:xodm="http://www.corel.com/coreldraw/odm/2003">
 <defs>
  <style type="text/css">
   <![CDATA[
    .fil0 {fill:#FEFEFE;fill-rule:nonzero}
   ]]>
  </style>
 </defs>
 <g id="Слой_x0020_1">
  <metadata id="CorelCorpID_0Corel-Layer"/>
  <g id="_2637359860688">
   <path class="fil0" d="M23.66 252.79c7.32,-0.01 13.24,5.91 13.24,13.22l0 66.15c0,14.61 11.85,26.46 26.46,26.46l317.48 0c14.61,0 26.46,-11.85 26.46,-26.46l0 -66.15c0,-7.31 5.92,-13.23 13.23,-13.23 7.31,0 13.23,5.92 13.23,13.23l0 66.15c0,29.22 -23.7,52.92 -52.92,52.92l-317.49 0c-29.21,0 -52.91,-23.7 -52.91,-52.92l0 -66.15c0,-7.31 5.92,-13.23 13.23,-13.23l-0.01 0.01z"/>
   <path class="fil0" d="M212.72 304.49c2.49,2.48 5.87,3.88 9.37,3.88 3.51,0 6.89,-1.4 9.37,-3.89l79.38 -79.38c2.48,-2.47 3.88,-5.85 3.88,-9.36 0,-7.32 -5.93,-13.24 -13.25,-13.24 -3.51,0 -6.89,1.39 -9.37,3.87l-56.78 56.82 0 -232.64c0,-7.31 -5.92,-13.23 -13.23,-13.23 -7.3,0 -13.22,5.92 -13.22,13.23l0 232.64 -56.78 -56.81c-2.47,-2.49 -5.85,-3.88 -9.36,-3.88 -7.32,0 -13.25,5.92 -13.25,13.24 0,3.51 1.4,6.89 3.88,9.37l79.37 79.38 -0.01 0z"/>
  </g>
 </g>
</svg>
