<?xml version="1.0" encoding="UTF-8"?>
<!DOCTYPE svg PUBLIC "-//W3C//DTD SVG 1.1//EN" "http://www.w3.org/Graphics/SVG/1.1/DTD/svg11.dtd">
<!-- Creator: CorelDRAW 2020 (64-Bit) -->
<svg xmlns="http://www.w3.org/2000/svg" xml:space="preserve" width="5mm" height="3mm" version="1.1" style="shape-rendering:geometricPrecision; text-rendering:geometricPrecision; image-rendering:optimizeQuality; fill-rule:evenodd; clip-rule:evenodd"
viewBox="0 0 500 300"
 xmlns:xlink="http://www.w3.org/1999/xlink"
 xmlns:xodm="http://www.corel.com/coreldraw/odm/2003">
 <defs>
  <style type="text/css">
   <![CDATA[
    .fil0 {fill:#FEFEFE}
   ]]>
  </style>
 </defs>
 <g id="Слой_x0020_1">
  <metadata id="CorelCorpID_0Corel-Layer"/>
  <g id="_1998027437760">
   <path class="fil0" d="M455.9 151.58c0,0 -79.37,-145.52 -211.67,-145.52 -132.3,0 -211.67,145.52 -211.67,145.52 0,0 79.37,145.52 211.67,145.52 132.3,0 211.67,-145.52 211.67,-145.52zm-392.3 0c12.78,19.35 27.58,37.55 43.96,54.01 34.01,34.15 80.58,65.05 136.67,65.05 56.09,0 102.63,-30.9 136.74,-65.01 16.35,-16.5 31.15,-34.7 43.92,-54.05 -12.77,-19.37 -27.58,-37.56 -43.95,-54.02 -34.08,-34.14 -80.65,-65.04 -136.71,-65.04 -56.09,0 -102.63,30.9 -136.74,65.01 -16.33,16.49 -31.14,34.68 -43.91,54.05l0.02 0z"/>
   <path class="fil0" d="M244.23 85.43c-36.51,0.01 -66.13,29.63 -66.13,66.15 0,36.51 29.62,66.13 66.13,66.13 36.52,0 66.14,-29.62 66.14,-66.13 0,-36.52 -29.62,-66.14 -66.14,-66.14l0 -0.01zm-92.6 66.15c0.02,-51.12 41.49,-92.59 92.6,-92.59 51.12,0 92.59,41.47 92.59,92.59 0,51.11 -41.47,92.58 -92.59,92.58 -51.11,0 -92.58,-41.47 -92.58,-92.58l-0.02 0z"/>
  </g>
 </g>
</svg>
