<?xml version="1.0" encoding="UTF-8"?>
<!DOCTYPE svg PUBLIC "-//W3C//DTD SVG 1.1//EN" "http://www.w3.org/Graphics/SVG/1.1/DTD/svg11.dtd">
<!-- Creator: CorelDRAW 2020 (64-Bit) -->
<svg xmlns="http://www.w3.org/2000/svg" xml:space="preserve" width="4.3mm" height="3.3mm" version="1.1" style="shape-rendering:geometricPrecision; text-rendering:geometricPrecision; image-rendering:optimizeQuality; fill-rule:evenodd; clip-rule:evenodd"
viewBox="0 0 430 330"
 xmlns:xlink="http://www.w3.org/1999/xlink"
 xmlns:xodm="http://www.corel.com/coreldraw/odm/2003">
 <defs>
  <style type="text/css">
   <![CDATA[
    .fil0 {fill:#2196F3}
   ]]>
  </style>
 </defs>
 <g id="Слой_x0020_1">
  <metadata id="CorelCorpID_0Corel-Layer"/>
  <path class="fil0" d="M-2.58 52.19c0.02,-21.91 17.79,-39.68 39.71,-39.68l343.93 -0.01c21.91,0.01 39.68,17.78 39.68,39.7l0 238.11c0,21.89 -17.77,39.66 -39.69,39.66l-343.94 0.02c-21.9,-0.02 -39.67,-17.79 -39.67,-39.71l0 -238.11 -0.02 0.02zm39.69 -13.23c-7.29,0.01 -13.21,5.93 -13.21,13.24l0 238.11c0,7.28 5.92,13.2 13.23,13.2l343.93 0.02c7.3,-0.02 13.22,-5.94 13.22,-13.25l0 -238.11c0,-7.28 -5.92,-13.2 -13.23,-13.2l-343.94 -0.01z"/>
  <path class="fil0" d="M50.34 78.65c0.02,-7.3 5.94,-13.22 13.25,-13.22l79.35 -0.01c7.33,0.01 13.25,5.93 13.25,13.24 0,7.31 -5.92,13.23 -13.23,13.23l-66.16 -0.01 0 66.15c0.02,7.31 -5.9,13.22 -13.21,13.22 -7.31,0 -13.23,-5.91 -13.23,-13.22l0 -79.37 -0.02 -0.01z"/>
  <path class="fil0" d="M369.42 265.38c-0.02,7.3 -5.94,13.22 -13.25,13.22l-79.35 0.01c-7.33,-0.01 -13.25,-5.93 -13.25,-13.24 0,-7.31 5.92,-13.23 13.23,-13.23l66.16 0.01 0 -66.15c-0.02,-7.31 5.9,-13.22 13.21,-13.22 7.31,0 13.23,5.91 13.23,13.22l0 79.37 0.02 0.01z"/>
 </g>
</svg>
