<?xml version="1.0" encoding="UTF-8"?>
<!DOCTYPE svg PUBLIC "-//W3C//DTD SVG 1.1//EN" "http://www.w3.org/Graphics/SVG/1.1/DTD/svg11.dtd">
<!-- Creator: CorelDRAW 2020 (64-Bit) -->
<svg xmlns="http://www.w3.org/2000/svg" xml:space="preserve" width="4mm" height="4mm" version="1.1" style="shape-rendering:geometricPrecision; text-rendering:geometricPrecision; image-rendering:optimizeQuality; fill-rule:evenodd; clip-rule:evenodd"
viewBox="0 0 400 400"
 xmlns:xlink="http://www.w3.org/1999/xlink"
 xmlns:xodm="http://www.corel.com/coreldraw/odm/2003">
 <defs>
  <style type="text/css">
   <![CDATA[
    .fil1 {fill:#FEFEFE}
    .fil0 {fill:black}
   ]]>
  </style>
 </defs>
 <g id="Слой_x0020_1">
  <metadata id="CorelCorpID_0Corel-Layer"/>
  <path class="fil0" d="M980.12 -2457.75c6,4 21,4 33,12 22,14 24,40 28,63 1,7 0,14 1,22 1,10 1,69 -1,83 -1,4 -1,8 -2,13 -1,7 -2,18 -5,25 -5,13 -9,23 -26,23 -2,0 -8,-2 -9,-3l-15 -11c-17,-18 -34,-41 -46,-62l-21 -35c-15,-27 -29,-55 -42,-83 -3,-6 -5,-13 -8,-20l-5 -11c-5,-11 -12,-23 -26,-27 -3,-1 -8,-3 -11,-3l-146 0c-4,0 -6,1 -9,2 -6,2 -11,2 -15,7 -9,10 -2,27 3,37 2,4 3,7 5,10 6,15 22,50 30,64l37 72c1,2 1,3 2,5l23 40c3,5 5,11 8,15 6,8 12,20 18,29l19 29c1,2 2,2 3,4l6 9c17,24 33,50 53,71l14 18c9,9 18,20 27,28 3,2 5,5 8,8 3,3 5,4 8,7 8,8 18,14 27,21l23 15c3,2 2,1 5,3 10,5 20,11 31,17 7,3 14,7 22,9l47 14c52,9 65,7 122,7 5,0 7,-1 10,-2 3,-1 6,-2 9,-4l6 -3c2,-1 1,0 2,-2 2,-2 4,-5 5,-8 1,-2 1,-2 1,-4 5,-13 2,-30 4,-43 2,-14 5,-29 11,-41 4,-7 4,-10 11,-15 19,-14 27,-8 44,3 9,6 18,14 25,23 1,1 1,2 2,3l2 3c12,13 24,28 37,41 4,4 5,6 9,10 4,5 10,9 15,13l23 15c3,2 3,2 6,3l22 7c3,1 5,1 8,1l147 0c7,0 12,-1 18,-3 18,-6 32,-10 32,-33 0,-14 -20,-41 -28,-53 -6,-8 -35,-42 -41,-46l-13 -13c0,0 0,0 -1,0l-7 -7c-2,-2 -3,-3 -6,-5l-47 -45c-17,-19 -28,-32 -15,-59 7,-17 33,-49 45,-64l58 -77c6,-9 13,-19 20,-28 1,-2 1,-3 2,-4 4,-5 7,-11 10,-17 7,-11 12,-25 18,-37 2,-4 2,-6 3,-10 2,-8 4,-19 -1,-27 -5,-7 -24,-12 -32,-12l-173 0c-7,0 -13,3 -18,8 -8,10 -23,51 -30,65l-12 28c-7,19 -20,35 -29,52 -12,23 -28,44 -44,65 -9,12 -30,36 -45,36 -11,0 -20,-13 -23,-23 -5,-18 -5,-37 -5,-56 0,-6 1,-8 1,-15l0 -45c0,-6 1,-8 1,-14 0,-9 -1,-22 0,-30 2,-14 0,-33 0,-49 -1,-15 -9,-30 -24,-36 -35,-13 -91,-10 -128,-10 -12,0 -21,2 -32,2 -4,0 -11,1 -14,2 -4,1 -10,2 -13,3 -12,5 -25,8 -33,19 -4,5 -4,5 -6,12l1 -1 -4 0z"/>
  <path class="fil1" d="M197.18 129.19c-29.39,0.41 -73.88,-13.47 -100,-28.17 -14.7,-8.16 -26.53,-15.91 -37.96,-25.71 -3.68,-3.27 -3.27,-1.63 -8.98,-7.35 -3.27,-3.26 -4.9,-4.9 -8.17,-8.16 -2.44,-2.04 -14.28,-15.1 -16.32,-15.92 -4.49,2.04 -8.98,21.63 -10.21,27.76 -4.49,20.81 2.04,44.49 14.7,60.81 3.26,4.08 5.71,6.53 9.39,10.21 6.93,6.94 16.73,11.43 -0.82,8.98 -11.43,-1.64 -21.63,-7.76 -24.9,-7.35 -0.41,9.39 3.27,21.63 6.12,29.8 16.33,44.49 52.25,47.34 56.74,51.43 -2.45,4.89 -27.35,2.85 -32.65,2.85 0,5.72 7.34,18.78 10.2,22.86 4.9,6.94 9.39,11.43 15.92,17.14 5.71,4.49 13.47,8.98 21.22,11.84 11.43,4.08 22.04,5.31 24.49,6.12 0,0 0.41,0 0.41,0.41l0.82 0.41c-2.86,8.16 -42.04,24.08 -49.39,26.53 -14.7,4.08 -32.65,7.35 -48.16,8.16 -5.31,0 -13.47,0 -18.78,0.41 0.82,2.86 1.22,1.63 5.31,4.49l19.59 10.61c13.88,6.53 15.51,6.53 29.39,11.43 42.04,14.7 97.95,13.06 140.4,0 27.76,-8.57 57.15,-24.08 79.19,-42.04 6.94,-5.71 15.92,-13.88 20.81,-19.59 3.68,-4.08 6.13,-6.94 9.39,-10.61 6.53,-6.94 11.84,-15.92 17.14,-23.68 22.05,-32.24 31.43,-66.12 37.15,-104.49l2.04 -28.16c0,-12.25 -2.45,-8.57 11.02,-18.78 7.75,-5.71 26.94,-24.9 28.57,-31.83 -4.08,0.4 -6.53,1.63 -10.2,2.85 -6.13,2.04 -28.98,7.35 -31.84,6.12l10.2 -8.57c9.39,-7.34 21.64,-25.3 21.64,-35.92 -6.13,2.05 -6.53,8.17 -44.9,18.37 -13.88,3.68 -11.84,-10.2 -42.86,-21.22 -13.47,-4.9 -23.26,-4.49 -38.77,-3.27 -15.11,1.23 -32.66,11.84 -42.86,21.63 -17.14,15.92 -26.94,35.52 -26.94,60.01 0,11.42 1.63,16.73 1.63,20.81l0.82 -0.81 0.41 -0.41z"/>
 </g>
</svg>
