<?xml version="1.0" encoding="UTF-8"?>
<!DOCTYPE svg PUBLIC "-//W3C//DTD SVG 1.1//EN" "http://www.w3.org/Graphics/SVG/1.1/DTD/svg11.dtd">
<!-- Creator: CorelDRAW 2020 (64-Bit) -->
<svg xmlns="http://www.w3.org/2000/svg" xml:space="preserve" width="4mm" height="4mm" version="1.1" style="shape-rendering:geometricPrecision; text-rendering:geometricPrecision; image-rendering:optimizeQuality; fill-rule:evenodd; clip-rule:evenodd"
viewBox="0 0 400 400"
 xmlns:xlink="http://www.w3.org/1999/xlink"
 xmlns:xodm="http://www.corel.com/coreldraw/odm/2003">
 <defs>
  <style type="text/css">
   <![CDATA[
    .fil0 {fill:#FEFEFE}
   ]]>
  </style>
 </defs>
 <g id="Слой_x0020_1">
  <metadata id="CorelCorpID_0Corel-Layer"/>
  <path class="fil0" d="M130.29 102.28c2.35,1.57 8.23,1.57 12.94,4.71 8.63,5.49 9.41,15.68 10.98,24.7 0.39,2.75 0,5.49 0.39,8.63 0.39,3.92 0.39,27.06 -0.39,32.55 -0.39,1.57 -0.39,3.14 -0.79,5.1 -0.39,2.74 -0.78,7.06 -1.96,9.8 -1.96,5.1 -3.53,9.02 -10.19,9.02 -0.79,0 -3.14,-0.78 -3.53,-1.18l-5.89 -4.31c-6.66,-7.06 -13.33,-16.08 -18.03,-24.31l-8.24 -13.73c-5.88,-10.59 -11.37,-21.57 -16.47,-32.55 -1.18,-2.35 -1.96,-5.1 -3.14,-7.84l-1.96 -4.31c-1.96,-4.32 -4.7,-9.02 -10.19,-10.59 -1.18,-0.4 -3.14,-1.18 -4.32,-1.18l-57.25 0c-1.57,0 -2.36,0.39 -3.53,0.78 -2.36,0.79 -4.32,0.79 -5.89,2.75 -3.53,3.92 -0.78,10.59 1.18,14.51 0.78,1.57 1.18,2.74 1.96,3.92 2.35,5.88 8.63,19.61 11.77,25.1l14.51 28.23c0.39,0.79 0.39,1.18 0.78,1.97l9.02 15.68c1.18,1.96 1.96,4.32 3.14,5.88 2.35,3.14 4.7,7.85 7.06,11.38l7.45 11.37c0.39,0.78 0.78,0.78 1.17,1.57l2.36 3.53c6.66,9.41 12.94,19.61 20.78,27.84l5.49 7.06c3.53,3.53 7.06,7.84 10.59,10.98 1.18,0.78 1.96,1.96 3.14,3.14 1.17,1.17 1.96,1.57 3.13,2.74 3.14,3.14 7.06,5.49 10.59,8.24l9.02 5.88c1.18,0.78 0.79,0.39 1.96,1.18 3.92,1.96 7.85,4.31 12.16,6.66 2.75,1.18 5.49,2.75 8.63,3.53l18.43 5.49c20.39,3.53 25.49,2.75 47.84,2.75 1.96,0 2.75,-0.39 3.92,-0.79 1.18,-0.39 2.36,-0.78 3.53,-1.56l2.36 -1.18c0.78,-0.39 0.39,0 0.78,-0.79 0.79,-0.78 1.57,-1.96 1.96,-3.13 0.39,-0.79 0.39,-0.79 0.39,-1.57 1.97,-5.1 0.79,-11.77 1.57,-16.86 0.79,-5.49 1.96,-11.38 4.32,-16.08 1.57,-2.75 1.57,-3.92 4.31,-5.88 7.45,-5.5 10.59,-3.14 17.26,1.17 3.52,2.35 7.05,5.49 9.8,9.02 0.39,0.39 0.39,0.79 0.78,1.18l0.79 1.17c4.7,5.1 9.41,10.98 14.51,16.08 1.57,1.57 1.96,2.36 3.53,3.92 1.57,1.97 3.92,3.53 5.88,5.1l9.02 5.88c1.18,0.79 1.18,0.79 2.35,1.18l8.63 2.75c1.18,0.39 1.96,0.39 3.14,0.39l57.65 0c2.74,0 4.7,-0.39 7.05,-1.18 7.06,-2.35 12.55,-3.92 12.55,-12.94 0,-5.49 -7.84,-16.08 -10.98,-20.78 -2.35,-3.14 -13.72,-16.47 -16.08,-18.04l-5.09 -5.1c0,0 0,0 -0.4,0l-2.74 -2.75c-0.79,-0.78 -1.18,-1.17 -2.35,-1.96l-18.44 -17.64c-6.66,-7.46 -10.98,-12.55 -5.88,-23.14 2.75,-6.67 12.94,-19.22 17.65,-25.1l22.74 -30.2c2.36,-3.53 5.1,-7.45 7.85,-10.98 0.39,-0.78 0.39,-1.17 0.78,-1.57 1.57,-1.96 2.75,-4.31 3.92,-6.66 2.75,-4.32 4.71,-9.81 7.06,-14.51 0.79,-1.57 0.79,-2.35 1.18,-3.92 0.78,-3.14 1.57,-7.45 -0.39,-10.59 -1.96,-2.75 -9.42,-4.71 -12.55,-4.71l-67.85 0c-2.74,0 -5.09,1.18 -7.06,3.14 -3.13,3.92 -9.01,20 -11.76,25.49l-4.71 10.98c-2.74,7.45 -7.84,13.73 -11.37,20.39 -4.7,9.02 -10.98,17.26 -17.25,25.49 -3.53,4.71 -11.77,14.12 -17.65,14.12 -4.31,0 -7.84,-5.1 -9.02,-9.02 -1.96,-7.06 -1.96,-14.51 -1.96,-21.96 0,-2.35 0.39,-3.14 0.39,-5.88l0 -17.65c0,-2.35 0.39,-3.14 0.39,-5.49 0,-3.53 -0.39,-8.63 0,-11.76 0.79,-5.49 0,-12.95 0,-19.22 -0.39,-5.88 -3.53,-11.76 -9.41,-14.12 -13.72,-5.1 -35.69,-3.92 -50.2,-3.92 -4.7,0 -8.23,0.79 -12.54,0.79 -1.57,0 -4.32,0.39 -5.49,0.78 -1.57,0.39 -3.93,0.78 -5.1,1.18 -4.71,1.96 -9.81,3.13 -12.94,7.45 -1.57,1.96 -1.57,1.96 -2.36,4.7l0.39 -0.39 -1.56 0z"/>
  <path class="fil0" d="M-808.24 -1892.23c-29.39,0.41 -73.88,-13.47 -100,-28.17 -14.7,-8.16 -26.53,-15.91 -37.96,-25.71 -3.68,-3.27 -3.27,-1.63 -8.98,-7.35 -3.27,-3.26 -4.9,-4.9 -8.17,-8.16 -2.44,-2.04 -14.28,-15.1 -16.32,-15.92 -4.49,2.04 -8.98,21.63 -10.21,27.76 -4.49,20.81 2.04,44.49 14.7,60.81 3.26,4.08 5.71,6.53 9.39,10.21 6.93,6.94 16.73,11.43 -0.82,8.98 -11.43,-1.64 -21.63,-7.76 -24.9,-7.35 -0.41,9.39 3.27,21.63 6.12,29.8 16.33,44.49 52.25,47.34 56.74,51.43 -2.45,4.89 -27.35,2.85 -32.65,2.85 0,5.72 7.34,18.78 10.2,22.86 4.9,6.94 9.39,11.43 15.92,17.14 5.71,4.49 13.47,8.98 21.22,11.84 11.43,4.08 22.04,5.31 24.49,6.12 0,0 0.41,0 0.41,0.41l0.82 0.41c-2.86,8.16 -42.04,24.08 -49.39,26.53 -14.7,4.08 -32.65,7.35 -48.16,8.16 -5.31,0 -13.47,0 -18.78,0.41 0.82,2.86 1.22,1.63 5.31,4.49l19.59 10.61c13.88,6.53 15.51,6.53 29.39,11.43 42.04,14.7 97.95,13.06 140.4,0 27.76,-8.57 57.15,-24.08 79.19,-42.04 6.94,-5.71 15.92,-13.88 20.81,-19.59 3.68,-4.08 6.13,-6.94 9.39,-10.61 6.53,-6.94 11.84,-15.92 17.14,-23.68 22.05,-32.24 31.43,-66.12 37.15,-104.49l2.04 -28.16c0,-12.25 -2.45,-8.57 11.02,-18.78 7.75,-5.71 26.94,-24.9 28.57,-31.83 -4.08,0.4 -6.53,1.63 -10.2,2.85 -6.13,2.04 -28.98,7.35 -31.84,6.12l10.2 -8.57c9.39,-7.34 21.64,-25.3 21.64,-35.92 -6.13,2.05 -6.53,8.17 -44.9,18.37 -13.88,3.68 -11.84,-10.2 -42.86,-21.22 -13.47,-4.9 -23.26,-4.49 -38.77,-3.27 -15.11,1.23 -32.66,11.84 -42.86,21.63 -17.14,15.92 -26.94,35.52 -26.94,60.01 0,11.42 1.63,16.73 1.63,20.81l0.82 -0.81 0.41 -0.41z"/>
 </g>
</svg>
